<svg width="338" height="133" viewBox="0 0 338 133" fill="none" xmlns="http://www.w3.org/2000/svg">
<path d="M8.38386 74.6075H0L12.7745 37.818H22.8569L35.6133 74.6075H27.2295L17.9603 46.2249H17.6712L8.38386 74.6075ZM7.85987 60.1468H27.6631V66.2185H7.85987V60.1468Z" fill="#F8AE44"/>
<path d="M47.891 37.818V74.6075H40.0673V37.818H47.891Z" fill="#F8AE44"/>
<path d="M54.3379 44.231V37.818H84.5863V44.231H73.3106V74.6075H65.6136V44.231H54.3379Z" fill="white"/>
<path d="M89.5677 74.6075V37.818H104.098C106.88 37.818 109.254 38.315 111.22 39.3089C113.198 40.291 114.703 41.6861 115.734 43.4945C116.777 45.2908 117.298 47.4046 117.298 49.8356C117.298 52.2787 116.771 54.3804 115.716 56.1409C114.661 57.8893 113.132 59.2306 111.13 60.1647C109.14 61.0988 106.73 61.5659 103.901 61.5659H94.1715V55.3145H102.642C104.128 55.3145 105.363 55.111 106.346 54.7038C107.329 54.2966 108.061 53.6858 108.54 52.8715C109.032 52.0571 109.278 51.0452 109.278 49.8356C109.278 48.6141 109.032 47.5842 108.54 46.7459C108.061 45.9076 107.323 45.2729 106.328 44.8417C105.345 44.3986 104.104 44.1771 102.606 44.1771H97.3546V74.6075H89.5677ZM109.458 57.8654L118.611 74.6075H110.015L101.059 57.8654H109.458Z" fill="white"/>
<path d="M129.15 74.6075H120.805L133.52 37.818H143.554L156.251 74.6075H147.906L138.681 46.2249H138.393L129.15 74.6075ZM128.628 60.1468H148.338V66.2185H128.628V60.1468Z" fill="white"/>
<path d="M173.74 74.6075H160.684V37.818H173.848C177.552 37.818 180.741 38.5545 183.415 40.0275C186.089 41.4885 188.145 43.5903 189.583 46.3327C191.034 49.0752 191.759 52.3565 191.759 56.1768C191.759 60.009 191.034 63.3024 189.583 66.0568C188.145 68.8112 186.077 70.9249 183.379 72.398C180.694 73.871 177.48 74.6075 173.74 74.6075ZM168.471 67.943H173.416C175.718 67.943 177.654 67.5358 179.225 66.7215C180.807 65.8951 181.994 64.6197 182.786 62.8952C183.589 61.1587 183.99 58.9192 183.99 56.1768C183.99 53.4583 183.589 51.2368 182.786 49.5123C181.994 47.7878 180.813 46.5183 179.243 45.704C177.672 44.8896 175.736 44.4825 173.434 44.4825H168.471V67.943Z" fill="white"/>
<path d="M197.528 74.6075V37.818H222.345V44.231H205.315V52.9972H221.068V59.4102H205.315V68.1945H222.417V74.6075H197.528Z" fill="white"/>
<path fill-rule="evenodd" clip-rule="evenodd" d="M300.985 33.2447L273.219 66.4893L281.993 76.994C286.819 82.7716 290.767 87.5096 290.767 87.5228C290.767 87.5361 288.01 87.547 284.641 87.547H278.515L272.794 80.6975L267.074 73.848L258.098 84.5946C253.162 90.5051 249.123 95.3588 249.123 95.3805C249.123 95.4022 251.189 95.4199 253.714 95.4199H258.306L262.69 90.1713L267.074 84.9227L271.457 90.1713L275.841 95.4199H291.198C302.468 95.4199 306.551 95.4043 306.539 95.3614C306.53 95.3292 301.109 88.8212 294.493 80.8992L282.464 66.4955L310.232 33.2477L338 0H333.375H328.751L300.985 33.2447ZM239.599 52.0269L251.665 66.4738L223.917 99.6975C208.656 117.971 196.169 132.939 196.169 132.961C196.169 132.982 198.235 133 200.761 133H205.353L233.134 99.7369L260.915 66.4738L252.115 55.9372L243.315 45.4006H249.46H255.605L261.333 52.2576L267.061 59.1145L276.054 48.3473L285.046 37.5801H280.422H275.797L271.427 42.8128L267.056 48.0455L262.686 42.8128L258.317 37.5801H242.925H227.534L239.599 52.0269Z" fill="white"/>
<path d="M1.80876 78.9972V87.024H1.31818V78.9972H1.80876Z" fill="#F8AE44"/>
<path d="M11.6586 78.9972V87.024H11.1798L6.05423 79.8869H6.00713V87.024H5.51655V78.9972H5.99928L11.1249 86.1421H11.172V78.9972H11.6586Z" fill="#F8AE44"/>
<path d="M15.0495 78.9972L17.6868 86.393H17.7418L20.3791 78.9972H20.8972L17.9969 87.024H17.4317L14.5314 78.9972H15.0495Z" fill="#F8AE44"/>
<path d="M23.7779 87.024V78.9972H28.252V79.4518H24.2685V82.7793H28.0126V83.234H24.2685V86.5693H28.3462V87.024H23.7779Z" fill="#F8AE44"/>
<path d="M36.0002 81.0039C35.9583 80.5048 35.7542 80.1011 35.3879 79.7928C35.0242 79.4845 34.5533 79.3303 33.9751 79.3303C33.5852 79.3303 33.2385 79.4022 32.935 79.5459C32.6315 79.6896 32.3934 79.8856 32.2208 80.1338C32.0481 80.382 31.9617 80.6668 31.9617 80.9882C31.9617 81.1946 32.001 81.3814 32.0795 81.5487C32.1606 81.7133 32.2744 81.8609 32.4209 81.9915C32.5674 82.1196 32.7414 82.2319 32.9429 82.3286C33.1443 82.4253 33.3667 82.5102 33.6101 82.5834L34.4892 82.842C34.7901 82.9335 35.0674 83.0393 35.3212 83.1595C35.5776 83.2797 35.8 83.4234 35.9884 83.5906C36.1794 83.7552 36.3272 83.9486 36.4319 84.1707C36.5392 84.3928 36.5928 84.6489 36.5928 84.9389C36.5928 85.3622 36.4829 85.741 36.2631 86.0755C36.046 86.4099 35.7359 86.6738 35.333 86.8672C34.9327 87.0579 34.4604 87.1533 33.9162 87.1533C33.3981 87.1533 32.9468 87.0658 32.5622 86.8907C32.1802 86.7157 31.878 86.4727 31.6556 86.1617C31.4332 85.8482 31.3076 85.4876 31.2788 85.08H31.7812C31.8074 85.4118 31.9133 85.6992 32.0991 85.9422C32.2875 86.1826 32.5373 86.3681 32.8487 86.4988C33.16 86.6294 33.5159 86.6948 33.9162 86.6948C34.3479 86.6948 34.7286 86.6216 35.0583 86.4753C35.3879 86.3263 35.6456 86.1199 35.8314 85.856C36.0172 85.5921 36.1101 85.2851 36.1101 84.935C36.1101 84.6528 36.0433 84.4111 35.9099 84.2099C35.7765 84.0087 35.5789 83.8349 35.3173 83.6886C35.0583 83.5423 34.7364 83.4117 34.3518 83.2967L33.4138 83.0145C32.7859 82.8238 32.3058 82.5638 31.9735 82.2345C31.6438 81.9053 31.479 81.4951 31.479 81.0039C31.479 80.591 31.5889 80.2252 31.8087 79.9065C32.0284 79.5851 32.3267 79.3329 32.7035 79.15C33.0829 78.9671 33.5106 78.8757 33.9868 78.8757C34.4656 78.8757 34.8882 78.9684 35.2545 79.1539C35.6208 79.3368 35.9112 79.589 36.1258 79.9104C36.3403 80.2291 36.4594 80.5936 36.4829 81.0039H36.0002Z" fill="#F8AE44"/>
<path d="M39.3793 79.4518V78.9972H45.0111V79.4518H42.4405V87.024H41.9499V79.4518H39.3793Z" fill="#F8AE44"/>
<path d="M57.0029 81.0039C56.961 80.5048 56.7569 80.1011 56.3906 79.7928C56.0269 79.4845 55.556 79.3303 54.9777 79.3303C54.5879 79.3303 54.2412 79.4022 53.9377 79.5459C53.6342 79.6896 53.3961 79.8856 53.2234 80.1338C53.0507 80.382 52.9644 80.6668 52.9644 80.9882C52.9644 81.1946 53.0037 81.3814 53.0821 81.5487C53.1633 81.7133 53.2771 81.8609 53.4236 81.9915C53.5701 82.1196 53.7441 82.2319 53.9456 82.3286C54.147 82.4253 54.3694 82.5102 54.6128 82.5834L55.4919 82.842C55.7928 82.9335 56.0701 83.0393 56.3239 83.1595C56.5803 83.2797 56.8027 83.4234 56.9911 83.5906C57.1821 83.7552 57.3299 83.9486 57.4346 84.1707C57.5418 84.3928 57.5955 84.6489 57.5955 84.9389C57.5955 85.3622 57.4856 85.741 57.2658 86.0755C57.0486 86.4099 56.7386 86.6738 56.3357 86.8672C55.9354 87.0579 55.4631 87.1533 54.9189 87.1533C54.4008 87.1533 53.9495 87.0658 53.5649 86.8907C53.1829 86.7157 52.8807 86.4727 52.6583 86.1617C52.4359 85.8482 52.3103 85.4876 52.2815 85.08H52.7839C52.81 85.4118 52.916 85.6992 53.1018 85.9422C53.2901 86.1826 53.54 86.3681 53.8514 86.4988C54.1627 86.6294 54.5186 86.6948 54.9189 86.6948C55.3506 86.6948 55.7313 86.6216 56.0609 86.4753C56.3906 86.3263 56.6483 86.1199 56.8341 85.856C57.0199 85.5921 57.1127 85.2851 57.1127 84.935C57.1127 84.6528 57.046 84.4111 56.9126 84.2099C56.7791 84.0087 56.5816 83.8349 56.32 83.6886C56.0609 83.5423 55.7391 83.4117 55.3545 83.2967L54.4165 83.0145C53.7886 82.8238 53.3085 82.5638 52.9762 82.2345C52.6465 81.9053 52.4817 81.4951 52.4817 81.0039C52.4817 80.591 52.5916 80.2252 52.8113 79.9065C53.0311 79.5851 53.3294 79.3329 53.7062 79.15C54.0855 78.9671 54.5133 78.8757 54.9895 78.8757C55.4683 78.8757 55.8909 78.9684 56.2572 79.1539C56.6235 79.3368 56.9139 79.589 57.1284 79.9104C57.343 80.2291 57.462 80.5936 57.4856 81.0039H57.0029Z" fill="#F8AE44"/>
<path d="M60.9157 78.9972H61.4495L64.546 86.3185H64.6009L67.6975 78.9972H68.2312V87.024H67.7603V80.1612H67.7132L64.805 87.024H64.3419L61.4338 80.1612H61.3867V87.024H60.9157V78.9972Z" fill="#F8AE44"/>
<path d="M71.6251 87.024H71.107L74.0073 78.9972H74.5725L77.4728 87.024H76.9547L74.3095 79.6282H74.2703L71.6251 87.024ZM72.359 84.0022H76.2208V84.4568H72.359V84.0022Z" fill="#F8AE44"/>
<path d="M80.3534 87.024V78.9972H82.8299C83.3375 78.9972 83.7744 79.0965 84.1407 79.295C84.507 79.4936 84.7883 79.7693 84.9845 80.122C85.1808 80.4721 85.2789 80.8798 85.2789 81.3449C85.2789 81.8047 85.1808 82.2097 84.9845 82.5598C84.7883 82.9074 84.507 83.1791 84.1407 83.3751C83.777 83.571 83.3414 83.669 82.8338 83.669H80.6164V83.2105H82.822C83.2354 83.2105 83.5887 83.1334 83.8817 82.9792C84.1747 82.8251 84.3997 82.6095 84.5567 82.3325C84.7137 82.0529 84.7922 81.7237 84.7922 81.3449C84.7922 80.9634 84.7137 80.6315 84.5567 80.3493C84.3997 80.0645 84.1734 79.8437 83.8778 79.687C83.5847 79.5302 83.2315 79.4518 82.8181 79.4518H80.844V87.024H80.3534ZM83.6541 83.3868L85.6321 87.024H85.0669L83.1007 83.3868H83.6541Z" fill="#F8AE44"/>
<path d="M88.0869 79.4518V78.9972H93.7188V79.4518H91.1482V87.024H90.6576V79.4518H88.0869Z" fill="#F8AE44"/>
<path d="M96.8879 87.024V78.9972H101.362V79.4518H97.3785V82.7793H101.123V83.234H97.3785V86.5693H101.456V87.024H96.8879Z" fill="#F8AE44"/>
<path d="M104.777 87.024V78.9972H107.254C107.761 78.9972 108.198 79.0965 108.565 79.295C108.931 79.4936 109.212 79.7693 109.409 80.122C109.605 80.4721 109.703 80.8798 109.703 81.3449C109.703 81.8047 109.605 82.2097 109.409 82.5598C109.212 82.9074 108.931 83.1791 108.565 83.3751C108.201 83.571 107.765 83.669 107.258 83.669H105.04V83.2105H107.246C107.659 83.2105 108.013 83.1334 108.306 82.9792C108.599 82.8251 108.824 82.6095 108.981 82.3325C109.138 82.0529 109.216 81.7237 109.216 81.3449C109.216 80.9634 109.138 80.6315 108.981 80.3493C108.824 80.0645 108.597 79.8437 108.302 79.687C108.009 79.5302 107.656 79.4518 107.242 79.4518H105.268V87.024H104.777ZM108.078 83.3868L110.056 87.024H109.491L107.525 83.3868H108.078Z" fill="#F8AE44"/>
<path d="M113.818 85.9266L113.747 86.3381C113.7 86.6072 113.64 86.9103 113.567 87.2474C113.496 87.5871 113.423 87.9137 113.347 88.2272C113.271 88.5408 113.202 88.7929 113.139 88.9836H112.766C112.803 88.7955 112.847 88.5643 112.899 88.2899C112.954 88.0182 113.011 87.7177 113.068 87.3885C113.128 87.0593 113.185 86.7183 113.237 86.3655L113.308 85.9266H113.818Z" fill="#F8AE44"/>
<path d="M127.983 78.9972V87.024H127.504L122.378 79.8869H122.331V87.024H121.841V78.9972H122.324L127.449 86.1421H127.496V78.9972H127.983Z" fill="#F8AE44"/>
<path d="M138.077 83.0106C138.077 83.8389 137.933 84.5626 137.645 85.1819C137.357 85.7985 136.957 86.278 136.444 86.6203C135.934 86.9626 135.345 87.1337 134.678 87.1337C134.008 87.1337 133.417 86.9626 132.904 86.6203C132.394 86.2754 131.995 85.7946 131.707 85.178C131.419 84.5587 131.276 83.8362 131.276 83.0106C131.276 82.1823 131.419 81.4598 131.707 80.8432C131.998 80.2265 132.398 79.7471 132.908 79.4048C133.418 79.0599 134.008 78.8874 134.678 78.8874C135.345 78.8874 135.934 79.0586 136.444 79.4009C136.957 79.7432 137.357 80.2239 137.645 80.8432C137.933 81.4598 138.077 82.1823 138.077 83.0106ZM137.598 83.0106C137.598 82.2659 137.473 81.6205 137.221 81.0744C136.973 80.5283 136.629 80.1063 136.189 79.8085C135.75 79.508 135.246 79.3577 134.678 79.3577C134.11 79.3577 133.607 79.5067 133.167 79.8046C132.728 80.0998 132.382 80.5218 132.131 81.0705C131.883 81.6166 131.758 82.2633 131.758 83.0106C131.758 83.75 131.881 84.3941 132.127 84.9428C132.376 85.4889 132.72 85.9122 133.159 86.2127C133.599 86.5132 134.105 86.6634 134.678 86.6634C135.246 86.6634 135.75 86.5145 136.189 86.2166C136.629 85.9161 136.973 85.4928 137.221 84.9467C137.473 84.4006 137.598 83.7552 137.598 83.0106Z" fill="#F8AE44"/>
<path d="M140.507 79.4518V78.9972H146.139V79.4518H143.569V87.024H143.078V79.4518H140.507Z" fill="#F8AE44"/>
<path d="M153.798 87.024V78.9972H154.289V82.7793H159.132V78.9972H159.622V87.024H159.132V83.234H154.289V87.024H153.798Z" fill="#F8AE44"/>
<path d="M163.018 87.024H162.5L165.4 78.9972H165.965L168.866 87.024H168.348L165.702 79.6282H165.663L163.018 87.024ZM163.752 84.0022H167.614V84.4568H163.752V84.0022Z" fill="#F8AE44"/>
<path d="M171.746 87.024V78.9972H174.223C174.73 78.9972 175.167 79.0965 175.534 79.295C175.9 79.4936 176.181 79.7693 176.377 80.122C176.574 80.4721 176.672 80.8798 176.672 81.3449C176.672 81.8047 176.574 82.2097 176.377 82.5598C176.181 82.9074 175.9 83.1791 175.534 83.3751C175.17 83.571 174.734 83.669 174.227 83.669H172.009V83.2105H174.215C174.628 83.2105 174.982 83.1334 175.275 82.9792C175.568 82.8251 175.793 82.6095 175.95 82.3325C176.107 82.0529 176.185 81.7237 176.185 81.3449C176.185 80.9634 176.107 80.6315 175.95 80.3493C175.793 80.0645 175.566 79.8437 175.271 79.687C174.978 79.5302 174.624 79.4518 174.211 79.4518H172.237V87.024H171.746ZM175.047 83.3868L177.025 87.024H176.46L174.494 83.3868H175.047Z" fill="#F8AE44"/>
<path d="M182.243 87.024H180.014V78.9972H182.416C183.169 78.9972 183.814 79.1566 184.35 79.4753C184.887 79.7941 185.298 80.2514 185.583 80.8471C185.871 81.4402 186.013 82.1522 186.01 82.9831C186.008 83.8323 185.859 84.5587 185.563 85.1623C185.267 85.7633 184.84 86.2244 184.28 86.5458C183.72 86.8646 183.041 87.024 182.243 87.024ZM180.504 86.5693H182.223C182.94 86.5693 183.545 86.4269 184.036 86.1421C184.528 85.8547 184.9 85.4432 185.151 84.9075C185.405 84.3719 185.53 83.7304 185.528 82.9831C185.528 82.2463 185.406 81.6153 185.163 81.0901C184.919 80.5623 184.565 80.1573 184.099 79.8751C183.636 79.5929 183.068 79.4518 182.396 79.4518H180.504V86.5693Z" fill="#F8AE44"/>
<path d="M189.306 87.024V78.9972H193.78V79.4518H189.797V82.7793H193.541V83.234H189.797V86.5693H193.874V87.024H189.306Z" fill="#F8AE44"/>
<path d="M197.196 87.024V78.9972H199.672C200.18 78.9972 200.617 79.0965 200.983 79.295C201.349 79.4936 201.631 79.7693 201.827 80.122C202.023 80.4721 202.121 80.8798 202.121 81.3449C202.121 81.8047 202.023 82.2097 201.827 82.5598C201.631 82.9074 201.349 83.1791 200.983 83.3751C200.619 83.571 200.184 83.669 199.676 83.669H197.459V83.2105H199.664C200.078 83.2105 200.431 83.1334 200.724 82.9792C201.017 82.8251 201.242 82.6095 201.399 82.3325C201.556 82.0529 201.634 81.7237 201.634 81.3449C201.634 80.9634 201.556 80.6315 201.399 80.3493C201.242 80.0645 201.016 79.8437 200.72 79.687C200.427 79.5302 200.074 79.4518 199.66 79.4518H197.686V87.024H197.196ZM200.496 83.3868L202.474 87.024H201.909L199.943 83.3868H200.496Z" fill="#F8AE44"/>
</svg>
