<svg width="338" height="133" viewBox="0 0 338 133" fill="none" xmlns="http://www.w3.org/2000/svg">
<path d="M8.38386 74.6074H0L12.7745 37.8179H22.8569L35.6133 74.6074H27.2295L17.9603 46.2249H17.6712L8.38386 74.6074ZM7.85987 60.1467H27.6631V66.2184H7.85987V60.1467Z" fill="#183056"/>
<path d="M47.891 37.8179V74.6074H40.0673V37.8179H47.891Z" fill="#183056"/>
<path d="M54.3379 44.2309V37.8179H84.5863V44.2309H73.3106V74.6074H65.6136V44.2309H54.3379Z" fill="#183056"/>
<path d="M89.5677 74.6074V37.8179H104.098C106.88 37.8179 109.254 38.3149 111.22 39.3089C113.198 40.2909 114.703 41.686 115.734 43.4944C116.777 45.2907 117.298 47.4045 117.298 49.8355C117.298 52.2786 116.771 54.3803 115.716 56.1408C114.661 57.8892 113.132 59.2305 111.13 60.1646C109.14 61.0987 106.73 61.5658 103.901 61.5658H94.1715V55.3144H102.642C104.128 55.3144 105.363 55.1109 106.346 54.7037C107.33 54.2965 108.061 53.6857 108.54 52.8714C109.032 52.057 109.278 51.0451 109.278 49.8355C109.278 48.614 109.032 47.5841 108.54 46.7458C108.061 45.9075 107.324 45.2728 106.328 44.8417C105.345 44.3985 104.104 44.177 102.606 44.177H97.3546V74.6074H89.5677ZM109.458 57.8653L118.611 74.6074H110.015L101.059 57.8653H109.458Z" fill="#183056"/>
<path d="M129.15 74.6074H120.805L133.52 37.8179H143.554L156.251 74.6074H147.906L138.681 46.2249H138.393L129.15 74.6074ZM128.628 60.1467H148.338V66.2184H128.628V60.1467Z" fill="#183056"/>
<path d="M173.74 74.6074H160.684V37.8179H173.848C177.552 37.8179 180.741 38.5544 183.415 40.0274C186.089 41.4884 188.145 43.5902 189.583 46.3326C191.034 49.0751 191.759 52.3564 191.759 56.1767C191.759 60.0089 191.034 63.3023 189.583 66.0567C188.145 68.8111 186.077 70.9248 183.379 72.3979C180.694 73.8709 177.48 74.6074 173.74 74.6074ZM168.471 67.9429H173.416C175.718 67.9429 177.654 67.5357 179.225 66.7214C180.807 65.895 181.994 64.6196 182.786 62.8951C183.589 61.1586 183.991 58.9192 183.991 56.1767C183.991 53.4582 183.589 51.2367 182.786 49.5122C181.994 47.7877 180.813 46.5183 179.243 45.7039C177.672 44.8896 175.736 44.4824 173.434 44.4824H168.471V67.9429Z" fill="#183056"/>
<path d="M197.528 74.6074V37.8179H222.345V44.2309H205.315V52.9971H221.068V59.4102H205.315V68.1944H222.417V74.6074H197.528Z" fill="#183056"/>
<path fill-rule="evenodd" clip-rule="evenodd" d="M300.985 33.2447L273.219 66.4893L281.993 76.994C286.819 82.7716 290.767 87.5096 290.767 87.5228C290.767 87.5361 288.01 87.547 284.641 87.547H278.515L272.794 80.6975L267.074 73.848L258.098 84.5946C253.162 90.5051 249.123 95.3588 249.123 95.3805C249.123 95.4022 251.189 95.4199 253.714 95.4199H258.306L262.69 90.1713L267.074 84.9227L271.457 90.1713L275.841 95.4199H291.198C302.468 95.4199 306.551 95.4043 306.539 95.3614C306.53 95.3292 301.109 88.8212 294.493 80.8992L282.464 66.4955L310.232 33.2477L338 0H333.375H328.751L300.985 33.2447ZM239.599 52.0269L251.665 66.4738L223.917 99.6975C208.656 117.971 196.169 132.939 196.169 132.961C196.169 132.982 198.235 133 200.761 133H205.353L233.134 99.7369L260.915 66.4738L252.115 55.9372L243.315 45.4006H249.46H255.605L261.333 52.2576L267.061 59.1145L276.054 48.3473L285.046 37.5801H280.422H275.797L271.427 42.8128L267.056 48.0455L262.686 42.8128L258.317 37.5801H242.925H227.534L239.599 52.0269Z" fill="#183056"/>
<path d="M1.80876 78.997V87.0238H1.31818V78.997H1.80876Z" fill="#183056"/>
<path d="M11.6586 78.997V87.0238H11.1798L6.05423 79.8867H6.00713V87.0238H5.51655V78.997H5.99928L11.1249 86.1419H11.172V78.997H11.6586Z" fill="#183056"/>
<path d="M15.0495 78.997L17.6868 86.3928H17.7418L20.3791 78.997H20.8972L17.9969 87.0238H17.4317L14.5314 78.997H15.0495Z" fill="#183056"/>
<path d="M23.7779 87.0238V78.997H28.252V79.4516H24.2685V82.7791H28.0126V83.2338H24.2685V86.5691H28.3462V87.0238H23.7779Z" fill="#183056"/>
<path d="M36.0002 81.0037C35.9583 80.5046 35.7542 80.1009 35.3879 79.7926C35.0242 79.4843 34.5533 79.3301 33.9751 79.3301C33.5852 79.3301 33.2385 79.402 32.935 79.5457C32.6315 79.6894 32.3934 79.8854 32.2208 80.1336C32.0481 80.3818 31.9617 80.6666 31.9617 80.988C31.9617 81.1944 32.001 81.3813 32.0795 81.5485C32.1606 81.7131 32.2744 81.8607 32.4209 81.9914C32.5674 82.1194 32.7414 82.2317 32.9429 82.3284C33.1443 82.4251 33.3667 82.51 33.6101 82.5832L34.4892 82.8419C34.7901 82.9333 35.0674 83.0391 35.3212 83.1593C35.5776 83.2795 35.8 83.4232 35.9884 83.5905C36.1794 83.7551 36.3272 83.9484 36.4319 84.1705C36.5392 84.3926 36.5928 84.6487 36.5928 84.9387C36.5928 85.362 36.4829 85.7409 36.2631 86.0753C36.046 86.4098 35.7359 86.6737 35.333 86.867C34.9327 87.0578 34.4604 87.1531 33.9162 87.1531C33.3981 87.1531 32.9468 87.0656 32.5622 86.8905C32.1802 86.7155 31.878 86.4725 31.6556 86.1615C31.4332 85.848 31.3076 85.4874 31.2788 85.0798H31.7812C31.8074 85.4116 31.9133 85.6991 32.0991 85.9421C32.2875 86.1824 32.5373 86.368 32.8487 86.4986C33.16 86.6292 33.5159 86.6946 33.9162 86.6946C34.3479 86.6946 34.7286 86.6214 35.0583 86.4751C35.3879 86.3262 35.6456 86.1197 35.8314 85.8558C36.0172 85.5919 36.1101 85.2849 36.1101 84.9348C36.1101 84.6526 36.0433 84.4109 35.9099 84.2097C35.7765 84.0085 35.5789 83.8348 35.3173 83.6884C35.0583 83.5421 34.7364 83.4115 34.3518 83.2965L33.4138 83.0143C32.7859 82.8236 32.3058 82.5636 31.9735 82.2344C31.6438 81.9051 31.479 81.4949 31.479 81.0037C31.479 80.5909 31.5889 80.225 31.8087 79.9063C32.0284 79.5849 32.3267 79.3327 32.7035 79.1498C33.0829 78.9669 33.5106 78.8755 33.9868 78.8755C34.4656 78.8755 34.8882 78.9682 35.2545 79.1538C35.6208 79.3367 35.9112 79.5888 36.1258 79.9102C36.3403 80.229 36.4594 80.5935 36.4829 81.0037H36.0002Z" fill="#183056"/>
<path d="M39.3793 79.4516V78.997H45.0111V79.4516H42.4405V87.0238H41.9499V79.4516H39.3793Z" fill="#183056"/>
<path d="M57.0029 81.0037C56.961 80.5046 56.7569 80.1009 56.3906 79.7926C56.0269 79.4843 55.556 79.3301 54.9777 79.3301C54.5879 79.3301 54.2412 79.402 53.9377 79.5457C53.6342 79.6894 53.3961 79.8854 53.2234 80.1336C53.0507 80.3818 52.9644 80.6666 52.9644 80.988C52.9644 81.1944 53.0037 81.3813 53.0821 81.5485C53.1633 81.7131 53.2771 81.8607 53.4236 81.9914C53.5701 82.1194 53.7441 82.2317 53.9456 82.3284C54.147 82.4251 54.3694 82.51 54.6128 82.5832L55.4919 82.8419C55.7928 82.9333 56.0701 83.0391 56.3239 83.1593C56.5803 83.2795 56.8027 83.4232 56.9911 83.5905C57.1821 83.7551 57.3299 83.9484 57.4346 84.1705C57.5418 84.3926 57.5955 84.6487 57.5955 84.9387C57.5955 85.362 57.4856 85.7409 57.2658 86.0753C57.0486 86.4098 56.7386 86.6737 56.3357 86.867C55.9354 87.0578 55.4631 87.1531 54.9189 87.1531C54.4008 87.1531 53.9495 87.0656 53.5649 86.8905C53.1829 86.7155 52.8807 86.4725 52.6583 86.1615C52.4359 85.848 52.3103 85.4874 52.2815 85.0798H52.7839C52.81 85.4116 52.916 85.6991 53.1018 85.9421C53.2901 86.1824 53.54 86.368 53.8514 86.4986C54.1627 86.6292 54.5186 86.6946 54.9189 86.6946C55.3506 86.6946 55.7313 86.6214 56.0609 86.4751C56.3906 86.3262 56.6483 86.1197 56.8341 85.8558C57.0199 85.5919 57.1127 85.2849 57.1127 84.9348C57.1127 84.6526 57.046 84.4109 56.9126 84.2097C56.7791 84.0085 56.5816 83.8348 56.32 83.6884C56.0609 83.5421 55.7391 83.4115 55.3545 83.2965L54.4165 83.0143C53.7886 82.8236 53.3085 82.5636 52.9762 82.2344C52.6465 81.9051 52.4817 81.4949 52.4817 81.0037C52.4817 80.5909 52.5916 80.225 52.8113 79.9063C53.0311 79.5849 53.3294 79.3327 53.7062 79.1498C54.0855 78.9669 54.5133 78.8755 54.9895 78.8755C55.4683 78.8755 55.8909 78.9682 56.2572 79.1538C56.6235 79.3367 56.9139 79.5888 57.1284 79.9102C57.343 80.229 57.462 80.5935 57.4856 81.0037H57.0029Z" fill="#183056"/>
<path d="M60.9157 78.997H61.4495L64.546 86.3183H64.6009L67.6975 78.997H68.2312V87.0238H67.7603V80.161H67.7132L64.805 87.0238H64.3419L61.4338 80.161H61.3867V87.0238H60.9157V78.997Z" fill="#183056"/>
<path d="M71.6251 87.0238H71.107L74.0073 78.997H74.5725L77.4728 87.0238H76.9547L74.3095 79.628H74.2703L71.6251 87.0238ZM72.359 84.002H76.2208V84.4566H72.359V84.002Z" fill="#183056"/>
<path d="M80.3534 87.0238V78.997H82.8299C83.3375 78.997 83.7744 79.0963 84.1407 79.2949C84.507 79.4934 84.7883 79.7691 84.9845 80.1218C85.1808 80.472 85.2789 80.8796 85.2789 81.3447C85.2789 81.8045 85.1808 82.2095 84.9845 82.5597C84.7883 82.9072 84.507 83.1789 84.1407 83.3749C83.777 83.5709 83.3414 83.6688 82.8338 83.6688H80.6164V83.2103H82.822C83.2354 83.2103 83.5887 83.1332 83.8817 82.979C84.1747 82.8249 84.3997 82.6093 84.5567 82.3323C84.7137 82.0528 84.7922 81.7235 84.7922 81.3447C84.7922 80.9632 84.7137 80.6314 84.5567 80.3492C84.3997 80.0644 84.1734 79.8436 83.8778 79.6868C83.5847 79.53 83.2315 79.4516 82.8181 79.4516H80.844V87.0238H80.3534ZM83.6541 83.3866L85.6321 87.0238H85.0669L83.1007 83.3866H83.6541Z" fill="#183056"/>
<path d="M88.0869 79.4516V78.997H93.7188V79.4516H91.1482V87.0238H90.6576V79.4516H88.0869Z" fill="#183056"/>
<path d="M96.8879 87.0238V78.997H101.362V79.4516H97.3785V82.7791H101.123V83.2338H97.3785V86.5691H101.456V87.0238H96.8879Z" fill="#183056"/>
<path d="M104.777 87.0238V78.997H107.254C107.761 78.997 108.198 79.0963 108.565 79.2949C108.931 79.4934 109.212 79.7691 109.409 80.1218C109.605 80.472 109.703 80.8796 109.703 81.3447C109.703 81.8045 109.605 82.2095 109.409 82.5597C109.212 82.9072 108.931 83.1789 108.565 83.3749C108.201 83.5709 107.765 83.6688 107.258 83.6688H105.04V83.2103H107.246C107.659 83.2103 108.013 83.1332 108.306 82.979C108.599 82.8249 108.824 82.6093 108.981 82.3323C109.138 82.0528 109.216 81.7235 109.216 81.3447C109.216 80.9632 109.138 80.6314 108.981 80.3492C108.824 80.0644 108.597 79.8436 108.302 79.6868C108.009 79.53 107.656 79.4516 107.242 79.4516H105.268V87.0238H104.777ZM108.078 83.3866L110.056 87.0238H109.491L107.525 83.3866H108.078Z" fill="#183056"/>
<path d="M113.818 85.9264L113.747 86.3379C113.7 86.607 113.64 86.9101 113.567 87.2472C113.496 87.5869 113.423 87.9135 113.347 88.227C113.271 88.5406 113.202 88.7927 113.139 88.9835H112.766C112.803 88.7953 112.847 88.5641 112.899 88.2897C112.954 88.018 113.011 87.7175 113.068 87.3883C113.128 87.0591 113.185 86.7181 113.237 86.3653L113.308 85.9264H113.818Z" fill="#183056"/>
<path d="M127.983 78.997V87.0238H127.504L122.378 79.8867H122.331V87.0238H121.841V78.997H122.324L127.449 86.1419H127.496V78.997H127.983Z" fill="#183056"/>
<path d="M138.077 83.0104C138.077 83.8387 137.933 84.5624 137.645 85.1817C137.357 85.7983 136.957 86.2778 136.444 86.6201C135.934 86.9624 135.345 87.1335 134.678 87.1335C134.008 87.1335 133.417 86.9624 132.904 86.6201C132.394 86.2752 131.995 85.7944 131.707 85.1778C131.419 84.5585 131.276 83.8361 131.276 83.0104C131.276 82.1821 131.419 81.4596 131.707 80.843C131.998 80.2264 132.398 79.7469 132.908 79.4046C133.418 79.0597 134.008 78.8872 134.678 78.8872C135.345 78.8872 135.934 79.0584 136.444 79.4007C136.957 79.743 137.357 80.2237 137.645 80.843C137.933 81.4596 138.077 82.1821 138.077 83.0104ZM137.598 83.0104C137.598 82.2657 137.473 81.6203 137.221 81.0742C136.973 80.5281 136.629 80.1062 136.189 79.8083C135.75 79.5078 135.246 79.3576 134.678 79.3576C134.11 79.3576 133.607 79.5065 133.167 79.8044C132.728 80.0996 132.382 80.5216 132.131 81.0703C131.883 81.6164 131.758 82.2631 131.758 83.0104C131.758 83.7498 131.881 84.3939 132.127 84.9426C132.376 85.4887 132.72 85.912 133.159 86.2125C133.599 86.513 134.105 86.6632 134.678 86.6632C135.246 86.6632 135.75 86.5143 136.189 86.2164C136.629 85.9159 136.973 85.4926 137.221 84.9465C137.473 84.4004 137.598 83.7551 137.598 83.0104Z" fill="#183056"/>
<path d="M140.507 79.4516V78.997H146.139V79.4516H143.569V87.0238H143.078V79.4516H140.507Z" fill="#183056"/>
<path d="M153.798 87.0238V78.997H154.289V82.7791H159.132V78.997H159.622V87.0238H159.132V83.2338H154.289V87.0238H153.798Z" fill="#183056"/>
<path d="M163.018 87.0238H162.5L165.4 78.997H165.965L168.866 87.0238H168.348L165.702 79.628H165.663L163.018 87.0238ZM163.752 84.002H167.614V84.4566H163.752V84.002Z" fill="#183056"/>
<path d="M171.746 87.0238V78.997H174.223C174.73 78.997 175.167 79.0963 175.534 79.2949C175.9 79.4934 176.181 79.7691 176.377 80.1218C176.574 80.472 176.672 80.8796 176.672 81.3447C176.672 81.8045 176.574 82.2095 176.377 82.5597C176.181 82.9072 175.9 83.1789 175.534 83.3749C175.17 83.5709 174.734 83.6688 174.227 83.6688H172.009V83.2103H174.215C174.628 83.2103 174.982 83.1332 175.275 82.979C175.568 82.8249 175.793 82.6093 175.95 82.3323C176.107 82.0528 176.185 81.7235 176.185 81.3447C176.185 80.9632 176.107 80.6314 175.95 80.3492C175.793 80.0644 175.566 79.8436 175.271 79.6868C174.978 79.53 174.624 79.4516 174.211 79.4516H172.237V87.0238H171.746ZM175.047 83.3866L177.025 87.0238H176.46L174.494 83.3866H175.047Z" fill="#183056"/>
<path d="M182.243 87.0238H180.014V78.997H182.416C183.169 78.997 183.814 79.1564 184.35 79.4751C184.887 79.7939 185.298 80.2512 185.583 80.8469C185.871 81.44 186.013 82.1521 186.01 82.983C186.008 83.8321 185.859 84.5585 185.563 85.1621C185.267 85.7631 184.84 86.2242 184.28 86.5456C183.72 86.8644 183.041 87.0238 182.243 87.0238ZM180.504 86.5691H182.223C182.94 86.5691 183.545 86.4267 184.036 86.1419C184.528 85.8545 184.9 85.443 185.151 84.9074C185.405 84.3717 185.53 83.7302 185.528 82.983C185.528 82.2461 185.406 81.6151 185.163 81.0899C184.919 80.5621 184.565 80.1571 184.099 79.8749C183.636 79.5927 183.068 79.4516 182.396 79.4516H180.504V86.5691Z" fill="#183056"/>
<path d="M189.306 87.0238V78.997H193.78V79.4516H189.797V82.7791H193.541V83.2338H189.797V86.5691H193.874V87.0238H189.306Z" fill="#183056"/>
<path d="M197.196 87.0238V78.997H199.672C200.18 78.997 200.617 79.0963 200.983 79.2949C201.349 79.4934 201.631 79.7691 201.827 80.1218C202.023 80.472 202.121 80.8796 202.121 81.3447C202.121 81.8045 202.023 82.2095 201.827 82.5597C201.631 82.9072 201.349 83.1789 200.983 83.3749C200.619 83.5709 200.184 83.6688 199.676 83.6688H197.459V83.2103H199.664C200.078 83.2103 200.431 83.1332 200.724 82.979C201.017 82.8249 201.242 82.6093 201.399 82.3323C201.556 82.0528 201.634 81.7235 201.634 81.3447C201.634 80.9632 201.556 80.6314 201.399 80.3492C201.242 80.0644 201.016 79.8436 200.72 79.6868C200.427 79.53 200.074 79.4516 199.66 79.4516H197.686V87.0238H197.196ZM200.496 83.3866L202.474 87.0238H201.909L199.943 83.3866H200.496Z" fill="#183056"/>
</svg>
