<svg width="106" height="106" viewBox="0 0 106 106" fill="none" xmlns="http://www.w3.org/2000/svg">
<path d="M42.5 76.625V29.375L74 53M53 0.5C46.1056 0.5 39.2787 1.85795 32.9091 4.49632C26.5395 7.1347 20.752 11.0018 15.8769 15.8769C6.03123 25.7226 0.5 39.0761 0.5 53C0.5 66.9239 6.03123 80.2774 15.8769 90.1231C20.752 94.9982 26.5395 98.8653 32.9091 101.504C39.2787 104.142 46.1056 105.5 53 105.5C66.9239 105.5 80.2774 99.9688 90.1231 90.1231C99.9688 80.2774 105.5 66.9239 105.5 53C105.5 46.1056 104.142 39.2787 101.504 32.9091C98.8653 26.5395 94.9982 20.752 90.1231 15.8769C85.248 11.0018 79.4605 7.1347 73.0909 4.49632C66.7213 1.85795 59.8944 0.5 53 0.5Z" fill="white"/>
</svg>
